<?xml version="1.0" standalone="no"?>
<!DOCTYPE svg PUBLIC "-//W3C//DTD SVG 20010904//EN"
 "http://www.w3.org/TR/2001/REC-SVG-20010904/DTD/svg10.dtd">
<svg version="1.0" xmlns="http://www.w3.org/2000/svg"
 width="505.000000pt" height="505.000000pt" viewBox="0 0 505.000000 505.000000"
 preserveAspectRatio="xMidYMid meet">
<metadata>
Created by potrace 1.11, written by Peter Selinger 2001-2013
</metadata>
<g transform="translate(0.000000,505.000000) scale(0.100000,-0.100000)"
fill="#000000" stroke="none">
<path d="M2984 5036 c-19 -14 -19 -34 -19 -764 0 -620 2 -752 14 -765 12 -16
93 -17 975 -17 735 0 965 3 974 12 9 9 12 194 12 770 0 738 0 758 -19 768 -13
7 -334 10 -968 10 -804 0 -952 -2 -969 -14z m1736 -209 l25 -13 3 -537 c2
-526 2 -537 -18 -557 -20 -20 -32 -20 -779 -20 -693 0 -760 1 -772 17 -11 13
-15 111 -17 517 -2 276 0 520 3 544 5 32 12 46 28 52 12 5 355 9 762 9 578 1
745 -2 765 -12z"/>
<path d="M393 4700 c-65 -39 -65 -43 -66 -460 0 -337 2 -380 18 -413 49 -103
195 -101 247 3 16 31 18 69 18 323 l0 287 955 0 c790 0 961 2 989 14 101 42
111 181 17 243 l-34 23 -1056 0 c-1030 0 -1057 -1 -1088 -20z"/>
<path d="M2870 3315 c-7 -8 -17 -49 -23 -91 -9 -63 -9 -77 3 -84 20 -13 2160
-13 2179 -1 13 8 13 21 3 88 -8 50 -18 82 -29 91 -13 9 -107 12 -390 12 l-373
0 -24 -38 c-24 -38 -25 -39 -102 -45 -92 -8 -264 -7 -352 2 -59 6 -63 8 -80
41 l-17 35 -391 3 c-339 2 -393 0 -404 -13z"/>
<path d="M405 3125 c-120 -128 -264 -378 -324 -560 -96 -292 -105 -624 -26
-928 146 -563 595 -1003 1179 -1156 291 -76 622 -66 906 29 248 82 599 314
600 395 1 26 -62 93 -513 541 -283 281 -519 520 -525 531 -8 15 -7 26 8 50 28
47 75 75 139 82 74 9 103 28 131 86 72 150 -78 304 -219 224 -51 -29 -71 -61
-81 -130 -12 -83 -66 -159 -114 -159 -14 0 -189 168 -541 520 -586 586 -546
555 -620 475z"/>
<path d="M1992 3133 c-7 -3 -19 -18 -28 -35 -13 -24 -13 -35 -4 -58 14 -35 18
-36 122 -50 158 -22 262 -74 363 -182 37 -40 77 -98 99 -142 34 -69 66 -192
66 -256 0 -45 31 -74 76 -73 64 2 77 28 72 143 -9 175 -69 301 -213 446 -77
77 -105 98 -185 137 -52 26 -122 54 -155 62 -56 14 -185 19 -213 8z"/>
<path d="M1889 2809 c-37 -14 -55 -60 -39 -98 13 -32 35 -43 125 -61 148 -30
251 -134 271 -271 9 -69 24 -108 44 -119 32 -17 70 -11 95 15 68 67 -11 301
-138 411 -108 93 -280 152 -358 123z"/>
<path d="M4523 1611 c-79 -37 -78 -25 -81 -543 l-3 -458 -661 0 c-652 0 -661
0 -698 -21 -47 -27 -70 -66 -70 -121 0 -54 27 -100 73 -121 32 -15 105 -17
784 -17 849 0 797 -5 841 81 l23 44 -3 540 c-3 497 -4 543 -21 568 -40 61
-114 81 -184 48z"/>
<path d="M221 763 c-15 -32 -15 -716 -1 -744 10 -18 27 -19 568 -19 421 0 561
3 570 12 18 18 16 212 -2 231 -8 8 -52 20 -98 27 -328 48 -649 201 -906 433
-94 86 -115 95 -131 60z"/>
</g>
</svg>
